<?xml version="1.0" encoding="utf-8"?>
<!DOCTYPE svg PUBLIC "-//W3C//DTD SVG 1.1//EN"
"http://www.w3.org/Graphics/SVG/1.1/DTD/svg11.dtd">
<svg xmlns="http://www.w3.org/2000/svg"
   xmlns:xlink="http://www.w3.org/1999/xlink"
      width="466" height="410" viewBox="0 0 466 410">
<defs>
  <style>.cls-1{fill:#737373;}.cls-2{fill:#9B9B9B;}.cls-12,.cls-14,.cls-15,.cls-3,.cls-7,.cls-8{fill:none;}.cls-3{stroke:#9B9B9B;}.cls-12,.cls-13,.cls-14,.cls-15,.cls-3,.cls-8{stroke-miterlimit:10;}.cls-15,.cls-3{stroke-width:3px;}.cls-13,.cls-4{fill:#c9c9c9;}.cls-5{fill:#fff1e5;}.cls-6{fill:#e6e6e6;}.cls-7{stroke:#737373;stroke-linejoin:round;stroke-dasharray:0 4.01;}.cls-13,.cls-14,.cls-15,.cls-7,.cls-8{stroke-linecap:round;}.cls-14,.cls-7{stroke-width:4px;}.cls-8{stroke:#fff;stroke-width:1.5px;}.cls-9{fill:#fff;}.cls-10{fill:url(#名称未設定グラデーション_14);}.cls-11{fill:url(#名称未設定グラデーション_14-2);}.cls-12{stroke:#eed3bf;stroke-linecap:square;stroke-width:7px;}.cls-13,.cls-14,.cls-15{stroke:#c9c9c9;}.cls-13{stroke-width:1.22px;}.cls-16{fill:#94b5cc;}.cls-17{fill:#eed3bf;}</style><radialGradient id="名称未設定グラデーション_14" cx="243.95" cy="138.35" r="11.22" gradientTransform="matrix(.76 0 0 .76 14.2 33.9)" gradientUnits="userSpaceOnUse"><stop offset="0" stop-color="#eed3bf"/><stop offset="1" stop-color="#fff1e5"/></radialGradient><radialGradient id="名称未設定グラデーション_14-2" cx="223.66" cy="169.21" r="7.61" gradientTransform="translate(41.02 .15)" xlink:href="#名称未設定グラデーション_14"/></defs><title>Prof_character</title><path class="cls-1" d="M153.55 398.08l1 7.73c4.35 6.53 26.33 7 26.25-13l1-.08c2.33-1.83 4.52-5.56 3.5-7.5z"/><path class="cls-2" d="M161.4 379.51c-2.5 4.5-8.73 11.51-8.1 19.44.35 4.48 4.29 5.93 7 6.48 5.83 1.17 13.5.25 16.67-6.67 1.5-3.28 7.17-10.42 7.75-18.67z"/><path class="cls-1" d="M259.32 400.95l.48 4.74c-7.77 4-25.65 4.36-30.77-5.77l.25-2.75-2.12-.12c-2.87-.37-5.75-1.87-6.5-4.37l-.25-4.62z"/><path class="cls-2" d="M259.55 402.05v-3.49c-2-11.39-21.24-11.76-22.34-27.74l-16.59 2.36c-2.76 6.43-2.23 10.84-.4 15.43 2.94 2 5.9 1.52 8.73 5.14 6.62 8.49 12.6 13.63 30.6 8.3z"/><path class="cls-1" d="M232.92 157.18c13.25-13.75 10.86-37.73 1.19-52.87-7.5-11.75-73.35-2.26-80.08 1-20 9.67-10.87 28-15.67 39-6.67 15.33 1.58 31.5 10.08 42-49.12 34.37-31.12 108.37-64.12 181.87 4 8 23.48 18.48 35.31 18.15 1.17-2.83 2.91-8.12 4.07-11.67 42.33-4.67 108-4.33 154.33 10.67l.34 4.85c7.5 1 16.17-1.33 20.67-3.5-13.5-73.35-17.87-108.73-66.12-229.5z"/><path class="cls-3" d="M211.4 181.35c-5 10.21-27 11.33-35.46 17.33-8.89 6.31-26.79 38.17-27.54 69.67"/><path class="cls-2" d="M123.45 374.66c5.42 2 14.76 4.42 17.76 4.17 2.5-16.75 17.27-96.44 8.27-125.31-9.83 30.24-9.36 91.14-26.03 121.14zM239.29 220.83c12.25 22 30 97 38.5 164.5-13.5 0-34-2-42.5-2.5 1-26.5 6-86.5 4-162z"/><path class="cls-4" d="M128.25 380.37c14.5 10 29.5 13 43.16 10s26.34-5.5 34.83-2.33c7.6 2.83 13.74-2.09 22.54-4.29 3.47-.87 20.62-2.87 28.72-1.75 3.63.5 11.78-1.37 10.38-4.49-9-20-9-41-13.81-70-2.91-17.48-9.54-38-13.67-64.5 13.5-.5 38.5-6.14 45.09-17 4.52-7.43 6.33-32.17-1.67-48.67-6.5-7-28.67-4.67-41.49-2-6-5.53-11.79-8.19-18.79-11-17.67 37.83-43.73 24-53.23 40.53-13.87 24.09-20.77 40.81-22 58.5a26.14 26.14 0 0 0 .48 8.43c-8.08 29.15 1.8 64.38-20.54 108.57zM236.07 141.83c-2.72 4.19-6 16.44-14.61 16.88-16.68-3.67-31.14-7.44-40.37-7-14 .67-31.83-4.37-35.26-15.37-2.38-7.64-1-22.79 8.09-26.5 37.67-15.33 61-5.17 82.41 5 3.74 8.24 2.96 21.99-.26 26.99z"/><path class="cls-1" d="M280.9 177.43c-4.55.61-1.25 47.17 3 48.75 7.09-14.92 1.34-49.33-3-48.75z"/><path class="cls-4" d="M148.2 186.33c11.68-18.52 34.74-25 56.53-25-21.91 3.85-41.1 10.04-56.53 25z"/><path class="cls-1" d="M224.79 162.08c15.16 24.25 17.95 55.44 17.95 77.94 0 2.07 4 1.83 8.8 2.81-2.16.67-8.8 1.69-11.13.19 2.74-38.59-3.62-45.69-15.62-80.94z"/><path class="cls-2" d="M191.07 193.76c5.5 10.58 13.25 20.83 8.82 29.44 3.43 7.67 3.8 12.6.87 20.73-.31 9.19-4.56 16.13-10.07 20.15-11.43 11.25-43 23.17-42.34-.7-4.13 29.56 32.91 14 44.46 1.45 6-4.65 9-11.52 10.07-20.33 3.19-8.81 2.19-13.81-.62-21 4.04-9.4-3.19-20.65-11.19-29.74z"/><path class="cls-1" d="M191.07 193.76c5.5 10.58 12.25 20.83 7.82 29.44 3.43 7.67 3.8 12.6.87 20.73-.31 9.19-4.56 16.13-10.07 20.15-11.43 11.25-42 23.13-41.37-.75-2.83 27 30.95 14 42.5 1.5 6-4.65 9-11.52 10.07-20.33 3.19-8.81 2.19-13.81-.62-21 4.03-9.4-3.05-19.74-9.2-29.74z"/><path class="cls-2" d="M182.45 307.56c1.67 26.33-7.54 59-3.4 81.11a30.41 30.41 0 0 0 8.5-1.5c-5.98-19.66 5.27-53.99-5.1-79.61z"/><path class="cls-1" d="M182.4 306.85c1.67 26.33-11 60.33-6.85 82.48a30.41 30.41 0 0 0 8.5-1.5c-5.98-19.65 5.02-54.98-1.65-80.98z"/><path class="cls-2" d="M230.49 324.51c-9.83 21.25-3.17 38.88-6.42 61 4.76-1.31 9.6-3 13.71-3.08-1.63-16.62-10.54-34.92-7.29-57.92z"/><path class="cls-1" d="M230.4 324.18c-7.25 22.5 0 37.88-3.25 60 5-.8 8.43-1.53 12.38-1.87-1.63-16.63-12.38-35.13-9.13-58.13zM153.38 271.51c1.45 6.51 11.83 3.5 20 .67 7.23-2.51 16.49-10 15.83-11.5-2.17-5-10.17-4-19.17-1.33-9.21 2.73-16.97 10.66-16.66 12.16z"/><path class="cls-5" d="M202.8 152.6a5.61 5.61 0 0 1-.92 1.79c6.48 1.48 10 2.21 17.21 3.88a3.48 3.48 0 0 1 .63-3.42z"/><path class="cls-1" d="M215.95 162.66a27.52 27.52 0 0 0-5.9-.71 21.28 21.28 0 0 0-6.2.82 13.63 13.63 0 0 0-6.51 3.93 9 9 0 0 0-2 3.83 9.21 9.21 0 0 0 1.93 7.65 9.07 9.07 0 0 0 2.67 2.26 10.7 10.7 0 0 0 4.8 1.28 12.49 12.49 0 0 0 1.77 0l.11 1.5a14.35 14.35 0 0 1-4.3-.27 10.94 10.94 0 0 1-3.11-1.17 10.57 10.57 0 0 1-3.11-2.64 10.72 10.72 0 0 1-2.23-8.96 10.46 10.46 0 0 1 2.33-4.48 15.1 15.1 0 0 1 7.22-4.39 22.77 22.77 0 0 1 6.63-.88 28.42 28.42 0 0 1 6.22.75z"/><path class="cls-6" d="M215.62 164.12a26 26 0 0 0-5.58-.67 19.79 19.79 0 0 0-5.76.76 12.16 12.16 0 0 0-5.8 3.48 7.45 7.45 0 0 0-1.67 3.18 6.76 6.76 0 0 0 .15 3.55 8.12 8.12 0 0 0 3.72 4.71 9.23 9.23 0 0 0 4.13 1.09 11.27 11.27 0 0 0 1.59 0l.11 1.5a12.49 12.49 0 0 1-1.77 0 10.7 10.7 0 0 1-4.8-1.28 9.07 9.07 0 0 1-2.67-2.26 9.21 9.21 0 0 1-1.93-7.64 9 9 0 0 1 2-3.83 13.63 13.63 0 0 1 6.51-3.93 21.28 21.28 0 0 1 6.2-.82 26.93 26.93 0 0 1 5.9.71z"/><path class="cls-1" d="M215.28 165.59a24.27 24.27 0 0 0-5.26-.64 18.3 18.3 0 0 0-5.32.7 10.69 10.69 0 0 0-5.09 3 6 6 0 0 0-1.34 2.54 5.32 5.32 0 0 0 .1 2.7 6.6 6.6 0 0 0 3 3.9 7.75 7.75 0 0 0 3.47.9 10.06 10.06 0 0 0 1.41 0l.11 1.5a11.27 11.27 0 0 1-1.59 0 9.23 9.23 0 0 1-4.13-1.09 8.12 8.12 0 0 1-3.72-4.71 6.76 6.76 0 0 1-.15-3.55 7.45 7.45 0 0 1 1.67-3.18 12.16 12.16 0 0 1 5.8-3.48 19.79 19.79 0 0 1 5.76-.76 25.5 25.5 0 0 1 5.58.67z"/><path class="cls-6" d="M214.95 167.05a22.73 22.73 0 0 0-4.94-.6 16.81 16.81 0 0 0-4.89.64 9.23 9.23 0 0 0-4.38 2.56 4.46 4.46 0 0 0-1 1.89 4.61 4.61 0 0 0 0 1.86 5.09 5.09 0 0 0 2.36 3.1 6.29 6.29 0 0 0 2.8.71 8.85 8.85 0 0 0 1.24 0l.11 1.5a10.06 10.06 0 0 1-1.41 0 7.75 7.75 0 0 1-3.47-.9 6.6 6.6 0 0 1-3-3.9 5.32 5.32 0 0 1-.1-2.7 6 6 0 0 1 1.34-2.54 10.69 10.69 0 0 1 5.09-3 18.3 18.3 0 0 1 5.32-.7 24.46 24.46 0 0 1 5.26.64z"/><path class="cls-1" d="M214.62 168.52a21.18 21.18 0 0 0-4.62-.56 15.32 15.32 0 0 0-4.45.58 7.78 7.78 0 0 0-3.67 2.11 3 3 0 0 0-.68 1.24 4.33 4.33 0 0 0 0 1l.28.76-.08-.19a4.44 4.44 0 0 0 .57 1 3 3 0 0 0 .9.77 4.83 4.83 0 0 0 2.14.53 7.64 7.64 0 0 0 1.06 0l.11 1.5a8.85 8.85 0 0 1-1.24 0 6.29 6.29 0 0 1-2.8-.71 5.09 5.09 0 0 1-2.36-3.1 4.61 4.61 0 0 1 0-1.86 4.46 4.46 0 0 1 1-1.89 9.23 9.23 0 0 1 4.38-2.56 16.81 16.81 0 0 1 4.89-.64 22.9 22.9 0 0 1 4.94.6zM245.45 181.32q.75 0 1.5-.11a9.81 9.81 0 0 0 4-1.37 7.27 7.27 0 0 0 2.24-2.17 9.35 9.35 0 0 0 1.18-3.22 9 9 0 0 0-.18-3.48 7.56 7.56 0 0 0-1.85-3.3 11.26 11.26 0 0 0-5.84-3 29 29 0 0 0-9.91-.16l-.19-1.49a30.6 30.6 0 0 1 10.43.18 15.09 15.09 0 0 1 3.27 1.09 11 11 0 0 1 3.33 2.36 9.07 9.07 0 0 1 2.21 3.95 10.48 10.48 0 0 1 .21 4.07 10.81 10.81 0 0 1-1.41 3.85 8.77 8.77 0 0 1-2.69 2.61 11.29 11.29 0 0 1-4.62 1.59q-.84.09-1.68.13z"/><path class="cls-6" d="M245.43 179.82q.67 0 1.33-.1a8.34 8.34 0 0 0 3.39-1.15c2.84-1.49 4.09-6.75 1.1-9.88a9.8 9.8 0 0 0-5.07-2.58 28.6 28.6 0 0 0-9.6-.13v-1.5a29 29 0 0 1 9.91.16 11.26 11.26 0 0 1 5.84 3 7.56 7.56 0 0 1 1.85 3.3 9 9 0 0 1 .18 3.48 9.35 9.35 0 0 1-1.18 3.22 7.27 7.27 0 0 1-2.24 2.17 9.81 9.81 0 0 1-4 1.37q-.75.08-1.5.11z"/><path class="cls-1" d="M245.38 175.32a4.31 4.31 0 0 0 2.36-.55 1.29 1.29 0 0 0 .44-.41q.1-.19.18-.39a3 3 0 0 0 .06-.33 3 3 0 0 0 0-1.14 1.53 1.53 0 0 0-.41-.72 5.54 5.54 0 0 0-2.77-1.28 22.55 22.55 0 0 0-7.85-.06l-.19-1.49a24 24 0 0 1 8.36.09 6.93 6.93 0 0 1 3.53 1.71 3.51 3.51 0 0 1 .84 3.09 5.19 5.19 0 0 1-.47 1.34 2.77 2.77 0 0 1-.89.85 5.42 5.42 0 0 1-2.17.71l-1 .08zM236.41 163a71.23 71.23 0 0 0-10.06 2.08 39.71 39.71 0 0 0-10.07-3.9l-.33 1.46a35.65 35.65 0 0 1 10.21 4.08 69.51 69.51 0 0 1 10.44-2.25z"/><path class="cls-6" d="M236.6 164.48a71.25 71.25 0 0 0-10.47 2.28 35.82 35.82 0 0 0-10.23-4.11l-.38 1.46a34.21 34.21 0 0 1 10.17 4.25 83.76 83.76 0 0 1 10.91-2.4v-1.48z"/><path class="cls-1" d="M251.26 168.69a9.8 9.8 0 0 0-5.07-2.58 28.66 28.66 0 0 0-9.6-.13l.37 1.49a25.76 25.76 0 0 1 8.91.11 8.36 8.36 0 0 1 4.3 2.15 5 5 0 0 1 1.24 4.32 4.35 4.35 0 0 1-2 3.26 6.88 6.88 0 0 1-2.78.93l-1.16.09v1.5q.67 0 1.33-.1a8.34 8.34 0 0 0 3.39-1.15c2.8-1.5 4.06-6.76 1.07-9.89z"/><path class="cls-6" d="M249.35 177.3a4.35 4.35 0 0 0 2-3.26 5 5 0 0 0-1.24-4.32 8.36 8.36 0 0 0-4.3-2.15 25.76 25.76 0 0 0-8.91-.11l.22 1.49a24 24 0 0 1 8.36.09 6.93 6.93 0 0 1 3.53 1.71 3.51 3.51 0 0 1 .84 3.09 5.19 5.19 0 0 1-.47 1.34 2.77 2.77 0 0 1-.89.85 5.41 5.41 0 0 1-2.17.71l-1 .08v1.5l1.16-.09a6.88 6.88 0 0 0 2.87-.93z"/><path class="cls-1" d="M225.61 168.4a32.94 32.94 0 0 0-10-4.27l-.33 1.46a35.64 35.64 0 0 1 10.46 4.45 68.84 68.84 0 0 1 11.21-2.58l-.37-1.49a84.59 84.59 0 0 0-10.97 2.43z"/><path class="cls-6" d="M215.28 165.59l-.33 1.46a34.75 34.75 0 0 1 10.59 4.62 72.52 72.52 0 0 1 11.64-2.72l-.22-1.49a68.84 68.84 0 0 0-11.21 2.58 36.13 36.13 0 0 0-10.47-4.45z"/><path class="cls-1" d="M225.33 173.31a35.66 35.66 0 0 0-10.71-4.79l.33-1.46a34.9 34.9 0 0 1 10.59 4.62 72.52 72.52 0 0 1 11.64-2.72l.19 1.49a75.77 75.77 0 0 0-12.04 2.86z"/><path class="cls-1" d="M245.45 181.32c-7.26-.07-14.27-4.4-19.53-9.07-5.31 4.42-12.31 8.93-19.42 9.44l.11 1.5c7-.5 14.07-4.63 19.42-8.86 5.72 4.44 12 8.24 19.43 8.5z"/><path class="cls-6" d="M245.43 179.82c-7.41.08-14.27-5-19.59-9.6-5.27 4.59-12.24 9.44-19.45 10l.11 1.5c7.11-.5 14-5 19.33-9.43 5.24 4.71 12.37 9 19.61 9.07z"/><path class="cls-1" d="M245.42 178.32c-7.42 0-14.39-5.41-19.56-10.1-5.28 4.65-12.21 9.93-19.57 10.48l.11 1.5c7.22-.52 14.17-5.33 19.45-9.9 5.35 4.58 12.16 9.58 19.59 9.54z"/><path class="cls-6" d="M225.87 166.18c5.22 4.75 12 10.57 19.53 10.62v1.5c-7.4.08-14.42-5.44-19.56-10.1-5.28 4.65-12.22 9.94-19.57 10.48l-.1-1.5c7.53-.59 14.29-6.2 19.7-11z"/><path class="cls-1" d="M225.88 164.18c5.27 4.77 11.88 11.08 19.5 11.13v1.5c-7.53-.08-14.29-5.85-19.53-10.62-5.39 4.76-12.18 10.42-19.7 11l-.11-1.5c7.64-.59 14.5-6.81 19.84-11.51zM207.43 211.36l1.47-2.56a66.8 66.8 0 0 1 3.89-23.22l-1.41-.51a76.19 76.19 0 0 0-3.95 26.29z"/><path class="cls-6" d="M210.44 206.33a66.35 66.35 0 0 1 3.76-20.24l-1.41-.51a67.09 67.09 0 0 0-3.89 23.22c.48-.84 1-1.62 1.54-2.47z"/><path class="cls-1" d="M211.24 205.18l.71 1.24a64.86 64.86 0 0 1 3.67-19.78l-1.41-.51a66.4 66.4 0 0 0-3.76 20.24z"/><path class="cls-6" d="M213.41 208.79a62.88 62.88 0 0 1 3.66-21.67l-1.41-.51a64.91 64.91 0 0 0-3.67 19.78c.41.79.9 1.62 1.42 2.4z"/><path class="cls-1" d="M214.94 211.09a68.76 68.76 0 0 1 3.5-23.46l-1.41-.51a62.57 62.57 0 0 0-3.62 21.67zM245.26 209.58c-.78-8.39-1.77-16.83-4.5-24.85l-1.42.49a99.35 99.35 0 0 1 4.21 22.12z"/><path class="cls-6" d="M243.55 207.34a99.14 99.14 0 0 0-4.22-22.16l-1.42.49a87.82 87.82 0 0 1 3.9 19.44q.89 1.07 1.74 2.23z"/><path class="cls-1" d="M240.94 204.06l.88 1.08a88.39 88.39 0 0 0-3.9-19.44l-1.42.49a86.4 86.4 0 0 1 3.83 19.11z"/><path class="cls-6" d="M240.32 205.3a87 87 0 0 0-3.83-19.12l-1.42.49c2.32 6.78 3.33 14 4 21.09q.64-1.21 1.25-2.46z"/><path class="cls-1" d="M235.07 186.68l-1.42.49c2.47 7.46 3.4 15.24 4.12 23l1.29-2.43a91.13 91.13 0 0 0-3.99-21.06zM225.98 172.25c-4.22 4.15-6.87 9.4-9 14.87l1.41.51c1.84-4.93 3.94-9.45 7.6-13.28 3.87 3.46 6 8 7.61 12.81l1.42-.49c-1.77-5.49-4.57-10.69-9.04-14.42z"/><path class="cls-6" d="M225.89 170.18c-4.83 4.35-8 10.38-10.27 16.38l1.41.51c2.08-5.47 4.74-10.72 9-14.87 4.48 3.63 7.31 9 9.1 14.43l1.42-.49c-2.09-6.06-5.48-11.91-10.66-15.96z"/><path class="cls-1" d="M225.81 168.25c-5.44 4.8-9.07 11.09-11.61 17.84l1.41.51c2.29-6 5.41-12.06 10.27-16.4 5.15 4 8.57 9.86 10.61 16l1.42-.49a35.74 35.74 0 0 0-12.1-17.46z"/><path class="cls-6" d="M225.74 166.31a46.6 46.6 0 0 0-13 19.27l1.41.51c2.56-6.77 6.19-13 11.61-17.84a35.72 35.72 0 0 1 12.1 17.45l1.42-.49a37.5 37.5 0 0 0-13.54-18.9z"/><path class="cls-1" d="M225.67 164.37a49.72 49.72 0 0 0-14.29 20.69l1.41.51a46.27 46.27 0 0 1 13-19.27 37.61 37.61 0 0 1 13.54 18.88l1.42-.49c-2.81-8.66-7.91-14.87-15.08-20.32z"/><ellipse class="cls-7" cx="225.85" cy="169.22" rx="5.76" ry="10.51"/><ellipse class="cls-4" cx="225.85" cy="169.22" rx="5.76" ry="10.51"/><path class="cls-8" d="M227.18 161.06c2.17 2.08 2.67 4.75 2.42 8.17"/><circle class="cls-9" cx="229.37" cy="171.49" r="1"/><path class="cls-2" d="M247.02 110.35c-.9 8.7-3.11 11.47-9.13 14.89.23-5.85.13-14-.09-16.54zM188.23 148.18a10.37 10.37 0 0 0 2 3.22 12 12 0 0 0 3.88-.62 7.19 7.19 0 0 1-.68-3.88 9.9 9.9 0 0 0 2.5 3.48 12.48 12.48 0 0 0 6.84-.72c-8.85-5-13.57-12.17-20-21.4-.47 7.62-1 16.52 2.34 22.92a8.32 8.32 0 0 0 2.8.2 5.54 5.54 0 0 1 .32-3.2zM238.07 126.18c.9 4.72 5.76 9.61 9.94 13.74-5.62 1-9.87-1.44-12.61-5.49.01-3.45.31-6.25 2.67-8.25z"/><path class="cls-4" d="M237.55 131.56c2.5 3.92 5.42 6.54 9 7.94-3.62.21-6.87-1.69-9.79-4.4a15.53 15.53 0 0 0 .79-3.54z"/><path class="cls-5" d="M240.79 98.95c-2.57-9.61-11.3-18-27.08-17.7-16.22.35-32.77 15-32.7 33.9a66.58 66.58 0 0 0 .47 7.75 27.9 27.9 0 0 1-4.27 3.35 13 13 0 0 0 8.78 11.93c6.12 11.48 17.44 16.77 31.58 16.84 12.59.07 23.34-17.06 20.83-30-.33-1.84 5.77-13.47 2.39-26.07z"/><circle class="cls-10" cx="199.25" cy="138.85" r="8.51"/><path class="cls-11" d="M238.3 132.18a9.37 9.37 0 0 0-4.59-1.15 8.51 8.51 0 0 0-8.51 8.51c0 4 2.2 7.72 6 8.58 3.78-4.7 6.6-9.69 7.1-15.94z"/><path class="cls-2" d="M216.41 144.48a5.89 5.89 0 0 1 .61.12 3.63 3.63 0 0 0 .63.13l.7.08c.26 0 .52.05.79.06s.55 0 .82 0h.83s.56 0 .84-.07.56-.07.84-.08.56-.08.82-.14.53-.1.8-.15.51-.13.74-.21.48-.14.67-.24.42-.15.55-.24l.53-.27.18.08-.24.47a3.36 3.36 0 0 1-.34.51 3.7 3.7 0 0 1-.53.59 6.76 6.76 0 0 1-.74.58 6.88 6.88 0 0 1-.92.5 7.41 7.41 0 0 1-1.05.38 7.62 7.62 0 0 1-1.14.2 7.38 7.38 0 0 1-1.16 0 7.18 7.18 0 0 1-1.1-.18 5.31 5.31 0 0 1-1-.33 5.55 5.55 0 0 1-.84-.42 4.29 4.29 0 0 1-.65-.46 3.06 3.06 0 0 1-.45-.41l-.36-.37zM221.07 138.47l.25-.08c.17 0 .35-.11.56-.15a7 7 0 0 1 1.35-.21 10 10 0 0 1 1.27 0h.8a1.19 1.19 0 0 1 0 .27 1.39 1.39 0 0 1-.27.64 2.23 2.23 0 0 1-1.72.87 2.41 2.41 0 0 1-1.74-.61 1.61 1.61 0 0 1-.41-.51 2.37 2.37 0 0 1-.09-.22z"/><path class="cls-9" d="M209.07 123.45c0 3.19-1.72 7-4.29 7s-5.3-3-5.3-6.21 2.08-5.78 4.65-5.78a4.79 4.79 0 0 1 4.94 4.99z"/><path class="cls-2" d="M205.42 119.18l.29-.1a1.87 1.87 0 0 0 .26-.1l.33-.14a9.23 9.23 0 0 0 1.82-1.14c.32-.25.63-.53.93-.79s.54-.55.76-.79c.43-.49.77-.84.77-.84a3.24 3.24 0 0 1-.18 1.16 7.67 7.67 0 0 1-.46 1.12 6.81 6.81 0 0 1-.76 1.19 6.5 6.5 0 0 1-2.08 1.73 3.85 3.85 0 0 1-.5.22 4.12 4.12 0 0 1-.4.13l-.3.07zM204.97 120.05h-.38a2.5 2.5 0 0 0-.39 0c-.14 0-.29 0-.47.07a11.64 11.64 0 0 0-2.64.79 14.18 14.18 0 0 0-1.38.66 9.9 9.9 0 0 0-1.13.74c-.31.25-.58.46-.77.62l-.3.26s0-.14.1-.39a4.37 4.37 0 0 1 .47-.95 8.55 8.55 0 0 1 5.32-3.54 5.12 5.12 0 0 1 .64-.1 3.92 3.92 0 0 1 .48 0h.38z"/><path class="cls-2" d="M205.45 123.95c0-1 3.49-1.94 3.49-1.94-.52-2.17-2.05-3.75-3.85-3.75-2.24 0-4 2.42-4 5.4s1.81 5.4 4 5.4c1.63 0 3-1.28 3.67-3.13 0 0-3.32-1.02-3.31-1.98z"/><path class="cls-9" d="M234.3 122.53c0 3-1 6.89-4.12 6.81-2.44-.06-4.58-2.74-4.58-5.77s2.18-5.43 4.62-5.43 4.08 1.36 4.08 4.39z"/><path class="cls-2" d="M231.76 119.58l.26-.13.61-.31a10.89 10.89 0 0 0 1.75-1.15c.3-.24.59-.51.86-.77a9 9 0 0 0 .68-.79c.38-.49.68-.84.68-.84a3.15 3.15 0 0 1-.1 1.12 6.5 6.5 0 0 1-.39 1.1 6 6 0 0 1-.7 1.17 6.81 6.81 0 0 1-1.92 1.68 5.37 5.37 0 0 1-.76.38l-.27.11z"/><path class="cls-2" d="M231.8 119.87l-.36-.12a1.91 1.91 0 0 0-.38-.11c-.13 0-.25-.08-.42-.09a5.26 5.26 0 0 0-1.17 0 4.86 4.86 0 0 0-.67.1 5 5 0 0 0-.69.2 6.49 6.49 0 0 0-.69.27c-.22.11-.45.21-.66.34a8.07 8.07 0 0 0-1.11.77c-.62.51-1.07.89-1.07.89s0-.14.11-.38a4.74 4.74 0 0 1 .47-.94 7 7 0 0 1 .95-1.17 6.06 6.06 0 0 1 .64-.58 6.15 6.15 0 0 1 .76-.5 5.46 5.46 0 0 1 1.73-.63 4.9 4.9 0 0 1 1.65-.05 4.49 4.49 0 0 1 .68.13 3.05 3.05 0 0 1 .46.15l.35.14z"/><path class="cls-2" d="M234.28 121.98c-.19-2.43-1.33-4-3.26-4-2.12 0-3.85 2.3-3.85 5.13s1.72 5.13 3.85 5.13c1.56 0 2.6-1.42 3-3.3 0 0-2.43-.75-2.42-1.45s2.68-1.51 2.68-1.51zM225.98 114.04l.28-.42a2.73 2.73 0 0 1 .39-.5 4.16 4.16 0 0 1 .65-.61 5 5 0 0 1 .84-.54 5.3 5.3 0 0 1 1-.42 7.77 7.77 0 0 1 1.12-.27 9.47 9.47 0 0 1 1.17-.07 8.33 8.33 0 0 1 1.16.07 7.92 7.92 0 0 1 1.09.24 7.28 7.28 0 0 1 1.8.78 6.49 6.49 0 0 1 .63.47c.16.18.3.32.4.45l.26.45-.39-.32a5.4 5.4 0 0 0-1.13-.59 7.47 7.47 0 0 0-1.74-.42c-.32 0-.66 0-1-.06a7.27 7.27 0 0 0-1 0 8.33 8.33 0 0 0-1 .17 7.32 7.32 0 0 0-.92.29 4 4 0 0 0-.79.39 3.86 3.86 0 0 0-.64.43 3.6 3.6 0 0 0-.44.41 1.77 1.77 0 0 0-.34.4l-.29.41a.68.68 0 0 1-1.11-.74zM197.38 115.3l.25-.59a3.12 3.12 0 0 1 .38-.64 3.91 3.91 0 0 1 .63-.76 5.82 5.82 0 0 1 .9-.75 8.85 8.85 0 0 1 1.14-.65 7.66 7.66 0 0 1 1.32-.49 10.34 10.34 0 0 1 1.43-.29 11.12 11.12 0 0 1 1.46-.08 10.59 10.59 0 0 1 1.42.12 11.39 11.39 0 0 1 1.3.3 7.57 7.57 0 0 1 1.13.45 5 5 0 0 1 .9.5 4.37 4.37 0 0 1 .64.48l.53.47a.67.67 0 0 1-.88 1l-.08-.06-.43-.37a3.26 3.26 0 0 0-.54-.38 4.48 4.48 0 0 0-.75-.42 6.58 6.58 0 0 0-.95-.39 10.08 10.08 0 0 0-1.12-.32 11.93 11.93 0 0 0-2.54-.21 9.3 9.3 0 0 0-1.3.15 8.79 8.79 0 0 0-1.24.3 8.11 8.11 0 0 0-1.1.45 6.8 6.8 0 0 0-.91.57 4.15 4.15 0 0 0-.7.58 3.11 3.11 0 0 0-.49.53z"/><path class="cls-2" d="M211.67 65.31c-7.9-1.25-19.87-.75-23.87 4.38a27.2 27.2 0 0 0-16.26 13.75c-3.87 7.37-3.69 27.52-17.94 35.77a13.22 13.22 0 0 0 8.85-2.85c-4.65 8.4-4.28 14.77-2 20.17 1.05 1.72 3.33 5.35 5.6 5.56a10.49 10.49 0 0 1 3.6-8.21c-.3 2.77-1 7.91-.88 9.86.69.69 2 2.07 3 2.29.13-2.1.66-4.7 2.6-6.3a18.94 18.94 0 0 0 .34 7.09 8.84 8.84 0 0 0 5.06 2.14 16.34 16.34 0 0 1 2-5.37c.08 1.72-.25 4.47-.14 6.49a8.52 8.52 0 0 0 3.83 1.24 120.25 120.25 0 0 1-1.62-14.06 13.26 13.26 0 0 1-6.74-11c.69-.46 1.44-1 2.21-1.56a38.87 38.87 0 0 0 11.89 13.79c-3.64-6.41-4.73-15.43-2.76-23.46 14.14-7.41 14.32-20.64 15.81-32.79 4.2 18.37 21.06 27.6 42.66 28.2.41-24.17-11.46-41.38-35.24-45.13z"/><path class="cls-4" d="M205.55 66.01c-14.17 10.75-21.12 14-23.87 25.29-2.34 9.56-8.87 21.25-23.75 25.81 5.83-4.67 12-5.94 13.79-21.27 1.25-10.47 8-23 19.21-23.73 4.95-6.1 10.62-5.71 14.62-6.1zM181.49 119.81a9.82 9.82 0 0 1 4.44-3.87c-.75 5.25-.63 14 2.38 18.25-4.51-4.26-5.07-6.57-6.82-14.38zM177.3 131.68a9.18 9.18 0 0 0 3.42 4.58 18.09 18.09 0 0 0-3.75 11c-1.67-5.08-1.5-12.2.33-15.58zM183.34 138.1a3.91 3.91 0 0 0 2.33 1.21c-.87 2.79-1.12 6.71-1.08 11.08-1.92-3.5-2.12-7.88-1.25-12.29zM176.3 126.6c-4.67 3.33-5.33 5.75-6.58 15.92l1.63 1.5c.41-7.76 2.62-11.51 4.95-17.42z"/><path class="cls-4" d="M246.99 105.68c-1.37-30-21.81-40-38.85-40.75 9.54 7.94 16.17 12.13 22.83 13.83s11.1 17.09 14.83 26.42c-8.73-4.19-22.35-6.53-32.73-23 3.18 2.06 7 3.24 10.71 5.45 6.19 3.69 11 5.91 16 13.84-3-9.87-7.66-14.14-14-17.84-6.67-3.92-14.67-8.92-20.25-17.67-9.87 17.42-10.15 23.35-13.62 31.67-4.12 9.88-19.37 21.54-29.21 23.33-1.79 6.08-2 10.92 1.92 17.83 4.21-28.92 25.85-21.51 32.92-37.92 3.5-8.12 2.13-20.12 7.86-28.64 1.14 28.14 32.22 31.47 39 34.64 1.63.77 1.08 12.25-5.79 17.88 8.46-4.29 8.6-12.32 8.38-19.07z"/><path class="cls-5" d="M295.81 177.45c-1.44 1.31-3 2-2.75 2.32.5.66 2.75-1.46 5-1.39s7.17.06 7.79.22a30.29 30.29 0 0 1 5.31 2.34c1.1.69 1.67 4.23-.29 4.32-.41 0-.65.4-.3.56 1.25.57.16 4.44-1.28 4.44-.69 0-.74.29-.29.65.77.61.5 3.12-1 3.49-.87.22-.72.61-.49.64.7.08.86 2.69-.62 3.51a4.69 4.69 0 0 1-1.48.51c-1.5.16-4.11 1-4.93.95a19.07 19.07 0 0 0-2.56-.06 4.06 4.06 0 0 1-2.94.13c-2.74-1.16-4-.78-6.56-1.37-2-.62-2.79-2-5-3.37-2.73-1.65-3.41-9-1.27-10.74 2.66-2.19 3.28-5.14 4.26-6.07s2.47-1.59 3.59-3.58z"/><path class="cls-12" d="M139.67 314.68L398.38 97.81"/><path class="cls-13" d="M138.84 320.62a4 4 0 1 1-5.65-5.58z"/><path class="cls-14" d="M134.75 313.01l5.56 6.64"/><path class="cls-5" d="M306.75 178.83c-1.37-1.25-6.37-2.44-7.12-1.19s0 2.88 3.06 4.56c-2-1-6.13-2.91-7.69-.62-1.06 1.56.94 3.31 3 4.81-2.56-1.37-6-1.45-6.87-.37-1.12 1.31-.06 3 1.75 4.38-1.31-1.12-3.81-1-4.56 0s.25 2.25 1.25 3c4.99 2.99 19.18-3.22 17.18-14.57zM289.95 174.94c.81-1.44 5.65-2.45 6.63-3 2.23-1.23 7.75-.23 7.75.33 0 3.84-7.52 2.92-8.52 5.17z"/><path class="cls-4" d="M401.63 89.55l-6.6 3.26 8.95 9.66 3.56-6.24-5.91-6.68zM408.91 94.76c8.25.66 26.94-5.27 28-30.37l-11.18 10.69c1.62 5.48-4.59 10.63-8.69 5.7-3.28-3.94 1.47-9.55 6.85-7.51l11.51-10.46c-17.09-1.8-33.14 13.2-32.42 25.29z"/><circle class="cls-15" cx="380.3" cy="112.57" r="16.25"/><path class="cls-15" d="M365.79 105.28a17.79 17.79 0 0 1 14.73 5.31c4.67 4.82 5.65 11.49 4.24 17.6M377.3 81.33c-10.25 24.67 10.42 46.5 37.25 40"/><circle class="cls-16" cx="411.82" cy="107.42" r="4.5" transform="rotate(-71.77 374.725 115.275)"/><path class="cls-15" d="M374.83 81.12l5.22 1.33"/><circle class="cls-16" cx="416.96" cy="120.32" r="4.5"/><path class="cls-15" d="M411.22 119.03l1.69 5.12"/><path class="cls-5" d="M173.7 294.66c5 2 10.08-3.21 12-4.46 3.4-2.26 5.13-6.37 2-11.25-3.25 1.13-5.59-3.22-4.54-5.5a9.62 9.62 0 0 0-4.37-1.75c-1-2.33-2.75-12.46-2.75-12.46-3.33.67-9.08 1.67-10.25 4.08 1 4.33 2.33 10.67 2.67 12a20.32 20.32 0 0 0-1.17 14.17c2.37 4.09 4 5.69 6.41 5.17z"/><path class="cls-16" d="M360.46 59.18c-10.21-2.63-10.77-2.34-14.46 7.53 2.63-10.21 2.34-10.77-7.53-14.46 10.21 2.63 10.77 2.34 14.46-7.53-2.64 10.23-2.34 10.8 7.53 14.46zM403.37 39.8c-11 .12-11.51.56-12.55 11.54-.12-11-.56-11.51-11.54-12.55 11-.12 11.51-.56 12.55-11.54.12 11.02.57 11.5 11.54 12.55zM440.39 125.77c-6.72-2.58-7.13-2.42-10.39 4 2.58-6.72 2.42-7.13-4-10.39 6.72 2.58 7.13 2.42 10.39-4-2.57 6.71-2.41 7.12 4 10.39zM438.55 8.66c-7.9.42-8.24.75-8.66 8.66-.42-7.9-.75-8.24-8.66-8.66 7.9-.42 8.24-.75 8.66-8.66.42 7.91.76 8.24 8.66 8.66zM465.07 51.18c-14.13-2.79-14.87-2.34-19.12 11.41 2.79-14.13 2.34-14.87-11.41-19.12 14.13 2.79 14.87 2.34 19.12-11.41-2.79 14.12-2.35 14.87 11.41 19.12zM405.57 229.12l12.6-2.77c5.58 9.75 7.33 19.67 7.91 29.88 4 9.63 6.19 13 7.88 17.74-3.37.15-5.56 1.94-8.89 4.94-2.31-6.77-3.16-11.55-3.37-20.79-7.46-3.19-20.57-17.56-16.13-29z"/><path class="cls-16" d="M418.75 228.31c.44-8.37-1-16.79-10.77-15.46-7.61 1-8.67 11.4-2.42 16.27zM353.54 244.64c2.85 1.84 6.82-.54 13.36-3.82-6.56 6.7-2.83 10.62 4.2 3.59-3.23 5.17.83 8.62 5 1.65-1.53 6.75 3.08 7.8 5.53 1.15-1 6 3.63 8.17 5.7.63-.48 6.41 4.4 7.84 5.72.26-.07 6.63 4.61 6.86 4.63.4.61 6.27 4.85 5.79 5.25-.07.14 5.65 3.55 5.38 4.59-.09 1.71 5.48 5.51 3.63 4.9-.47l-2.44-13.52c-13.56-7.71-46.05-4.66-56.44 10.29z"/><path class="cls-16" d="M404.19 231.18l.52-1.65c-1.28-.75-1.93-1.71-2.71-3.75-7.5-4.28-19.76-4.75-28.91-3.57 1.5 2.78 5.78 2.62 8.84 3.17-3.2.17-6.63.26-6.63 1.39 0 1.56 2.76 1.19 7.07 1.49-3.21.31-4.74 1.24-4.92 2.3 10.35-2.17 18.55-1.82 26.74.62z"/><path class="cls-17" d="M401.94 220.62a10.17 10.17 0 0 0-5.56 4.63c2.63-1.31 3.79 0 6.75-.44-.81-1.32-.19-2.88-1.19-4.19z"/><path class="cls-9" d="M405.59 219.35a1.76 1.76 0 0 1-2.06 1.21c-.75-.22-1-1.47-.58-2.73s1.18-1.87 1.93-1.65c1 .29 1.33 1.54.71 3.17z"/><path class="cls-1" d="M404.7 216.18a.79.79 0 0 0-.49 0 6.28 6.28 0 0 1-2.17-1.45 2.77 2.77 0 0 0 1.58 1.83 2.72 2.72 0 0 0-.51.73l.81.7-1.09.17a1.52 1.52 0 0 0 .6 1.8c.62.21 1.41-.47 1.76-1.52s.13-2.09-.49-2.26z"/><path class="cls-16" d="M64.51 164.56c-4.5 2.42-8 1.92-12.5-1-3.88-19.5 22-16.07 12.5 1z"/><path class="cls-17" d="M66.54 158.74c1.78 1.31 2.78 2 3.43 4.25a4.63 4.63 0 0 0-4.58-.47 1.37 1.37 0 0 1 .41-1.19 4.56 4.56 0 0 1 .74-2.59z"/><path class="cls-16" d="M54.82 163.46c-15-2.31-31.92-1.12-49.92 5.38-8.55 3.09-4.58 5.6 1.8 4.23-4.47 3.77-1 7.11 4.87.77-4.33 7-.83 9 2.61 3.5-1.11 4.67 1.89 7.17 5 .65-.66 6.52 3.56 7.26 4.33.18.51 6.68 4 7 4.51-.32.39 6.72 5.06 7.73 5.4.35 1.3 7.38 4.55 5.88 4.8-.5.16 5.91 4.63 5.88 5.29-.33.24 6.41 4.43 5.87 4.3-.41 3.95 1.43 8.2-9.47 7.01-13.5zM60.89 164.72c-2.24 3.52-2.6 7.51-.43 12.78-1.54 6.62 1.63 9.89 4.44 1.63-1.63 6.71 1.54 9.25 5.35 1.27-2.27 8.16 2.27 10.34 5 1.45-.63 7.08 2.19 9.58 5.26.91-.54 8.51 3.63 8.71 4.1 1 1.08 6.76 4.5 7.71 5.49.32 2.41 7 6.39 6.63 5.21-.29 4.92 7 7.76 5.39 4.91-.82 4.48 6.41 9.44 6.62 4.91-1.56 6.71 7.11 10.67 6.14 6-1 7.08 2.09 8.75-1.4 3.27-4-13.75-6.52-41.65-14.97-53.51-11.69z"/><path class="cls-16" d="M52.01 163.56c-5.37 8.55-6.69 19.46-3.52 30.29-1.4 5.25-1.17 8.17 0 11.25 2.67-3.33 6.33-1.67 10.42-1.33-1.5-5-3.58-7.75-5.42-11.17 5.67-4.08 11.92-13.58 11-28-.17-3.07-10.67-3.93-12.48-1.04z"/><path class="cls-9" d="M66.12 156.67c0-1-.3-1.89-.93-1.9-1.46 0-1.58 1.62-1.52 2.21.1 1 .63 1.85 1.53 1.71.67-.12.95-.77.92-2.02z"/><path class="cls-1" d="M65.5 154.79a2.56 2.56 0 0 0 1.24-1.38 1.9 1.9 0 0 1-.83 1.9 3.7 3.7 0 0 1 .21.77c-.12.06-.5.31-.68.41l.73.49c-.07 1-.29 1.64-.81 1.66s-1-.92-1.1-1.75c-.1-1.3.49-2.35 1.24-2.1z"/><path class="cls-16" d="M231.99 40.51c2-2.08 4.62-11.25-3-12.08-6.61-.72-8.37 5.83-8 11-7.06 4.4-10.25 11.58-9.73 21.06a16.17 16.17 0 0 0-3 4.25c1.81.19 3.38.31 5.06.56 3.25 2.19 6 3.25 9.25 2.94 7.75-3.71 15.5-18 9.42-27.73z"/><path class="cls-9" d="M228.53 34.05a1.54 1.54 0 0 1-1.61 1.5 1.57 1.57 0 0 1-1.18-1.91 1.68 1.68 0 0 1 1.84-1.46 1.4 1.4 0 0 1 .95 1.87z"/><path class="cls-1" d="M227.89 33.98a5.36 5.36 0 0 1 .61.39 1.63 1.63 0 0 1-1.43 1.21 1.81 1.81 0 0 1 .6-3.4.91.91 0 0 1 .37.16 3.17 3.17 0 0 0 1.93-.47 1.79 1.79 0 0 1-1.55.93 1.91 1.91 0 0 1 .19.76c-.3.17-.48.27-.72.42z"/><path class="cls-9" d="M234.66 33.83c0 .91-.16 1.75-.67 1.79a10.33 10.33 0 0 0-.11-3.3 1.55 1.55 0 0 1 .78 1.51z"/><path class="cls-1" d="M234.35 33.85a1.87 1.87 0 0 0 .18.38 2.25 2.25 0 0 1-.45 1.37 8.71 8.71 0 0 0-.11-3.24l.22.07a1.55 1.55 0 0 0 1.17-.81 1.4 1.4 0 0 1-1 1 2.07 2.07 0 0 1 .18.89 1.46 1.46 0 0 0-.19.34z"/><path class="cls-2" d="M211.76 60.62l.95-.41c.3-.13.68-.27 1.08-.48s.88-.4 1.37-.67 1-.52 1.57-.86a18.65 18.65 0 0 0 1.66-1.09 18.18 18.18 0 0 0 1.68-1.32 19.07 19.07 0 0 0 1.52-1.53 16.88 16.88 0 0 0 1.27-1.73 15.67 15.67 0 0 0 1-1.81 21 21 0 0 0 1.21-3.48c.18-.52.24-1 .36-1.45a11.59 11.59 0 0 0 .23-1.14c.11-.64.19-1 .19-1a.37.37 0 0 1 .73.08v1c0 .33 0 .74-.1 1.2a13.92 13.92 0 0 1-.25 1.55 15.09 15.09 0 0 1-.47 1.81 16.41 16.41 0 0 1-.76 2 15.05 15.05 0 0 1-1.13 2 15.32 15.32 0 0 1-1.44 1.82 15.75 15.75 0 0 1-1.71 1.56 9.64 9.64 0 0 1-.91.67 9.94 9.94 0 0 1-.92.6 19.46 19.46 0 0 1-1.83 1c-.58.3-1.17.51-1.69.72s-1 .34-1.47.49-.82.24-1.14.32z"/><path class="cls-17" d="M230.4 38.66a1.38 1.38 0 0 1 .63-1 1.68 1.68 0 0 1 2.75-1c.54 1.46.32 2.59-.05 4.78a5 5 0 0 0-3.33-2.78zM216.74 66.6c.63-1.54 4.22-1.26 4.77.58.88 2.91-1.26 2.8-1.62 1.75-.59 1.25-1.69 1.06-1.94-.28-.5 1.16-2.29.61-1.21-2.05zM222.07 68.24c.35-2.56 3.82-3.39 4.88 0 .56 1.81-.94 2.34-1.37.62.06 1.44-1.53 1.53-1.72 0-.13 1.48-2.01.98-1.79-.62z"/><path class="cls-2" d="M230.95 37.76a5 5 0 0 1 2.79 3.74 5.17 5.17 0 0 0-2.67-3.96.78.78 0 0 0 0 .13.23.23 0 0 0-.12.09z"/>
  </svg>
