<?xml version="1.0" encoding="iso-8859-1"?>
<!-- Generator: Adobe Illustrator 21.1.0, SVG Export Plug-In . SVG Version: 6.00 Build 0)  -->
<svg version="1.1" id="&#x30EC;&#x30A4;&#x30E4;&#x30FC;_1"
	 xmlns="http://www.w3.org/2000/svg" xmlns:xlink="http://www.w3.org/1999/xlink" x="0px" y="0px" viewBox="0 0 466 987"
	 style="enable-background:new 0 0 466 987;" xml:space="preserve">
<g style="display:none;">
	<path style="display:inline;fill:#FBF1E5;" d="M460,987.5c-151.333,0-302.667,0-454,0c-0.683-2.984-3.042-4.291-5.5-5.5
		c0-326.417,0.002-652.833-0.046-979.25c0-1.874,0.421-2.297,2.296-2.297c153.833,0.051,307.667,0.051,461.5,0
		c1.874-0.001,2.297,0.421,2.297,2.296C466.498,329.167,466.5,655.583,466.5,982C463.266,982.572,461.175,984.495,460,987.5z
		 M176.001,63.684c0.121,30.607,24.947,55.563,55.994,55.807c31.932,0.251,56.782-25.23,57.005-55.547
		c0.229-31.173-25.199-56.389-56.37-56.449C201.207,7.434,175.885,32.764,176.001,63.684z M176.002,515.53
		c0.015,30.907,25.114,55.648,55.827,55.967c31.902,0.331,56.891-25.06,57.172-55.374c0.29-31.344-25.099-56.37-55.954-56.628
		C201.177,459.228,175.954,484.809,176.002,515.53z M176.001,904.988c0.024,31.03,25.192,55.788,56.037,56.008
		c31.654,0.227,56.763-24.971,56.958-55.586c0.198-31.065-24.954-56.246-56.16-56.405
		C201.007,848.844,175.998,874.35,176.001,904.988z M94.617,120.5c-31.49-0.048-56.345,25.057-56.609,55.447
		c-0.273,31.407,25.138,56.336,56.003,56.554c31.729,0.224,56.91-25.098,56.989-55.823
		C151.078,145.601,125.797,120.561,94.617,120.5z M94.574,346.501c-31.663,0.032-56.203,25.124-56.561,55.242
		c-0.378,31.722,25.145,56.441,55.782,56.751c32.181,0.325,57.016-25.237,57.205-55.605
		C151.193,371.713,125.854,346.497,94.574,346.501z M370.314,232.5c31.504,0.066,56.383-24.948,56.672-55.376
		c0.3-31.594-25.128-56.25-55.675-56.618c-32.077-0.387-57.202,25.097-57.308,55.745C313.897,207.404,339.138,232.386,370.314,232.5
		z M176.001,289.117c-0.183,31.1,25.041,56.006,55.686,56.386c32.122,0.399,57.104-25.288,57.313-55.511
		c0.218-31.353-25.17-56.175-55.813-56.495C201.276,233.165,176.167,258.632,176.001,289.117z M370.61,346.501
		c-31.447-0.036-56.236,24.95-56.606,55.186c-0.387,31.604,25.077,56.478,55.756,56.814c31.972,0.349,57.149-25.048,57.242-55.819
		C427.095,371.771,402.043,346.583,370.61,346.501z M370.43,684.499c31.458,0.027,56.316-25.074,56.564-55.494
		c0.255-31.349-25.193-56.432-56.304-56.508c-31.437-0.077-56.623,24.999-56.683,55.873
		C313.946,659.49,339.239,684.476,370.43,684.499z M94.415,684.499c31.626-0.02,56.329-25.146,56.573-55.478
		c0.252-31.28-24.901-56.153-55.781-56.515c-31.968-0.376-57.021,25.104-57.206,55.598C37.813,659.343,63.2,684.492,94.415,684.499z
		 M288.998,741.455c-0.042-30.959-25.114-55.636-55.841-55.948c-31.893-0.324-56.867,24.995-57.157,55.383
		c-0.298,31.309,25.131,56.488,56.217,56.617C263.846,797.639,289.042,772.221,288.998,741.455z"/>
	<path style="display:inline;fill:#A09E9C;" d="M460,987.5c1.175-3.005,3.266-4.928,6.5-5.5c0,0.833,0,1.667,0,2.5
		c-1.577,0.522-3.017,1.203-3.5,3C462,987.5,461,987.5,460,987.5z"/>
	<path style="display:inline;fill:#A09E9C;" d="M0.5,982c2.458,1.209,4.817,2.516,5.5,5.5c-0.833,0-1.667,0-2.5,0
		c-0.765-1.115-1.48-2.291-3-2.5C0.5,984,0.5,983,0.5,982z"/>
	<path style="display:inline;fill:#FBF1E5;" d="M463,987.5c0.483-1.797,1.923-2.478,3.5-3C466.5,987.5,466.5,987.5,463,987.5z"/>
	<path style="display:inline;fill:#E8E8E8;" d="M0.5,985c1.52,0.209,2.235,1.385,3,2.5C1.837,987.462-0.388,988.098,0.5,985z"/>
	<path style="display:inline;fill:#C8C8C8;" d="M176.001,63.684c-0.117-30.92,25.205-56.25,56.629-56.189
		c31.171,0.06,56.6,25.276,56.37,56.449c-0.223,30.317-25.073,55.798-57.005,55.547C200.948,119.247,176.122,94.291,176.001,63.684z
		"/>
	<path style="display:inline;fill:#C8C8C8;" d="M176.002,515.53c-0.048-30.721,25.175-56.301,57.045-56.035
		c30.854,0.258,56.243,25.284,55.954,56.628c-0.28,30.314-25.269,55.705-57.172,55.374
		C201.116,571.178,176.017,546.436,176.002,515.53z"/>
	<path style="display:inline;fill:#C8C8C8;" d="M176.001,904.988c-0.003-30.638,25.005-56.144,56.835-55.982
		c31.205,0.159,56.358,25.34,56.16,56.405c-0.195,30.614-25.304,55.812-56.958,55.586
		C201.193,960.775,176.025,936.018,176.001,904.988z"/>
	<path style="display:inline;fill:#C8C8C8;" d="M94.617,120.5c31.18,0.061,56.461,25.1,56.382,56.178
		c-0.078,30.725-25.259,56.046-56.989,55.823c-30.865-0.218-56.276-25.146-56.003-56.554
		C38.272,145.558,63.127,120.452,94.617,120.5z"/>
	<path style="display:inline;fill:#C8C8C8;" d="M94.574,346.501c31.28-0.005,56.62,25.212,56.426,56.388
		c-0.189,30.368-25.024,55.93-57.205,55.605c-30.637-0.309-56.16-25.029-55.782-56.751
		C38.371,371.625,62.911,346.533,94.574,346.501z"/>
	<path style="display:inline;fill:#C8C8C8;" d="M370.314,232.5c-31.177-0.114-56.418-25.096-56.31-56.249
		c0.106-30.649,25.231-56.132,57.308-55.745c30.547,0.368,55.975,25.024,55.675,56.618
		C426.698,207.552,401.818,232.566,370.314,232.5z"/>
	<path style="display:inline;fill:#C8C8C8;" d="M176.001,289.117c0.165-30.485,25.274-55.952,57.186-55.619
		c30.643,0.32,56.031,25.142,55.813,56.495c-0.21,30.222-25.191,55.91-57.313,55.511
		C201.042,345.123,175.818,320.218,176.001,289.117z"/>
	<path style="display:inline;fill:#C8C8C8;" d="M370.61,346.501c31.433,0.082,56.485,25.27,56.392,56.18
		c-0.093,30.772-25.27,56.169-57.242,55.819c-30.679-0.335-56.143-25.209-55.756-56.814
		C314.374,371.452,339.163,346.465,370.61,346.501z"/>
	<path style="display:inline;fill:#C8C8C8;" d="M370.43,684.499c-31.191-0.023-56.484-25.009-56.423-56.129
		c0.06-30.874,25.247-55.951,56.683-55.873c31.111,0.077,56.559,25.159,56.304,56.508
		C426.746,659.425,401.888,684.526,370.43,684.499z"/>
	<path style="display:inline;fill:#C8C8C8;" d="M94.415,684.499c-31.215-0.007-56.602-25.156-56.413-56.395
		c0.184-30.494,25.238-55.973,57.206-55.598c30.88,0.363,56.033,25.235,55.781,56.515
		C150.744,659.353,126.041,684.479,94.415,684.499z"/>
	<path style="display:inline;fill:#C8C8C8;" d="M288.998,741.455c0.043,30.766-25.152,56.183-56.781,56.052
		c-31.086-0.129-56.515-25.308-56.217-56.617c0.29-30.388,25.264-55.707,57.157-55.383
		C263.884,685.819,288.957,710.496,288.998,741.455z"/>
	<path style="display:inline;fill:#DCDCDC;" d="M248.985,891.485c0.183-0.261,0.339-0.299,0.448,0.054
		C249.283,891.522,249.134,891.503,248.985,891.485z"/>
	<path style="display:inline;fill:#C8C8C8;" d="M84.423,401.939c-0.001-0.001,0.186,0.157,0.186,0.157"/>
</g>
<g id="&#x30EC;&#x30A4;&#x30E4;&#x30FC;_2">
	<g>
		<line style="fill:none;stroke:#C9C9C9;stroke-width:15;stroke-miterlimit:10;" x1="232.501" y1="63.493" x2="94.504" y2="175"/>
		<line style="fill:none;stroke:#FFFFFF;stroke-width:5;stroke-miterlimit:10;" x1="232.501" y1="63.493" x2="94.504" y2="175"/>
	</g>
	<g>
		<line style="fill:none;stroke:#C9C9C9;stroke-width:15;stroke-miterlimit:10;" x1="232.501" y1="63.493" x2="370.498" y2="175"/>
		<line style="fill:none;stroke:#FFFFFF;stroke-width:5;stroke-miterlimit:10;" x1="232.501" y1="63.493" x2="370.498" y2="175"/>
	</g>
	<g>
		<line style="fill:none;stroke:#C9C9C9;stroke-width:15;stroke-miterlimit:10;" x1="94.504" y1="175" x2="94.504" y2="628.5"/>
		<line style="fill:none;stroke:#FFFFFF;stroke-width:5;stroke-miterlimit:10;" x1="94.504" y1="175" x2="94.504" y2="628.5"/>
	</g>
	<g>
		<line style="fill:none;stroke:#C9C9C9;stroke-width:15;stroke-miterlimit:10;" x1="371.496" y1="175" x2="371.496" y2="628.5"/>
		<line style="fill:none;stroke:#FFFFFF;stroke-width:5;stroke-miterlimit:10;" x1="371.496" y1="175" x2="371.496" y2="628.5"/>
	</g>
	<g>
		<line style="fill:none;stroke:#C9C9C9;stroke-width:15;stroke-miterlimit:10;" x1="94.504" y1="175" x2="370.498" y2="175"/>
		<line style="fill:none;stroke:#FFFFFF;stroke-width:5;stroke-miterlimit:10;" x1="94.504" y1="175" x2="370.498" y2="175"/>
	</g>
	<g>
		
			<line style="fill:none;stroke:#C9C9C9;stroke-width:15;stroke-miterlimit:10;" x1="94.504" y1="402.503" x2="370.498" y2="402.503"/>
		
			<line style="fill:none;stroke:#FFFFFF;stroke-width:5;stroke-miterlimit:10;" x1="94.504" y1="402.503" x2="370.498" y2="402.503"/>
	</g>
	<g>
		<line style="fill:none;stroke:#C9C9C9;stroke-width:15;stroke-miterlimit:10;" x1="94.504" y1="628.5" x2="370.498" y2="628.5"/>
		<line style="fill:none;stroke:#FFFFFF;stroke-width:5;stroke-miterlimit:10;" x1="94.504" y1="628.5" x2="370.498" y2="628.5"/>
	</g>
	<g>
		<line style="fill:none;stroke:#C9C9C9;stroke-width:15;stroke-miterlimit:10;" x1="94.504" y1="175" x2="232.498" y2="519"/>
		<line style="fill:none;stroke:#FFFFFF;stroke-width:5;stroke-miterlimit:10;" x1="94.504" y1="175" x2="232.498" y2="519"/>
	</g>
	<g>
		<line style="fill:none;stroke:#C9C9C9;stroke-width:15;stroke-miterlimit:10;" x1="370.492" y1="175" x2="232.498" y2="519"/>
		<line style="fill:none;stroke:#FFFFFF;stroke-width:5;stroke-miterlimit:10;" x1="370.492" y1="175" x2="232.498" y2="519"/>
	</g>
	<g>
		<line style="fill:none;stroke:#C9C9C9;stroke-width:15;stroke-miterlimit:10;" x1="94.504" y1="402.503" x2="232.498" y2="519"/>
		<line style="fill:none;stroke:#FFFFFF;stroke-width:5;stroke-miterlimit:10;" x1="94.504" y1="402.503" x2="232.498" y2="519"/>
	</g>
	<g>
		<line style="fill:none;stroke:#C9C9C9;stroke-width:15;stroke-miterlimit:10;" x1="370.492" y1="402.503" x2="232.498" y2="519"/>
		<line style="fill:none;stroke:#FFFFFF;stroke-width:5;stroke-miterlimit:10;" x1="370.492" y1="402.503" x2="232.498" y2="519"/>
	</g>
	<g>
		<line style="fill:none;stroke:#C9C9C9;stroke-width:15;stroke-miterlimit:10;" x1="94.504" y1="628.5" x2="228" y2="519"/>
		<line style="fill:none;stroke:#FFFFFF;stroke-width:5;stroke-miterlimit:10;" x1="94.504" y1="628.5" x2="228" y2="519"/>
	</g>
	<g>
		<line style="fill:none;stroke:#C9C9C9;stroke-width:15;stroke-miterlimit:10;" x1="370.492" y1="628.5" x2="236.996" y2="519"/>
		<line style="fill:none;stroke:#FFFFFF;stroke-width:5;stroke-miterlimit:10;" x1="370.492" y1="628.5" x2="236.996" y2="519"/>
	</g>
	<g>
		<line style="fill:none;stroke:#C9C9C9;stroke-width:15;stroke-miterlimit:10;" x1="94.504" y1="628.5" x2="233" y2="746.717"/>
		<line style="fill:none;stroke:#FFFFFF;stroke-width:5;stroke-miterlimit:10;" x1="94.504" y1="628.5" x2="233" y2="746.717"/>
	</g>
	<g>
		<line style="fill:none;stroke:#C9C9C9;stroke-width:15;stroke-miterlimit:10;" x1="371.496" y1="628.5" x2="233" y2="746.717"/>
		<line style="fill:none;stroke:#FFFFFF;stroke-width:5;stroke-miterlimit:10;" x1="371.496" y1="628.5" x2="233" y2="746.717"/>
	</g>
	<g>
		
			<line style="fill:none;stroke:#C9C9C9;stroke-width:15;stroke-miterlimit:10;" x1="94.504" y1="628.5" x2="232.499" y2="905.001"/>
		<line style="fill:none;stroke:#FFFFFF;stroke-width:5;stroke-miterlimit:10;" x1="94.504" y1="628.5" x2="232.499" y2="905.001"/>
	</g>
	<g>
		
			<line style="fill:none;stroke:#C9C9C9;stroke-width:15;stroke-miterlimit:10;" x1="370.495" y1="628.5" x2="232.499" y2="905.001"/>
		
			<line style="fill:none;stroke:#FFFFFF;stroke-width:5;stroke-miterlimit:10;" x1="370.495" y1="628.5" x2="232.499" y2="905.001"/>
	</g>
	<g>
		
			<line style="fill:none;stroke:#C9C9C9;stroke-width:15;stroke-miterlimit:10;" x1="232.501" y1="63.493" x2="232.501" y2="905.001"/>
		
			<line style="fill:none;stroke:#FFFFFF;stroke-width:5;stroke-miterlimit:10;" x1="232.501" y1="63.493" x2="232.501" y2="905.001"/>
	</g>
</g>
</svg>
